Coordinates
version=1
nRows=16
nColumns=63
inDegrees=yes

Units are S.I. units (second, meters, Newtons, ...)
If the header above contains a line with 'inDegrees', this indicates whether rotational values are in degrees (yes) or radians (no).

endheader
time	pelvis_tilt	pelvis_list	pelvis_rotation	pelvis_tx	pelvis_ty	pelvis_tz	hip_flexion_r	hip_adduction_r	hip_rotation_r	knee_angle_r	knee_angle_r_beta	ankle_angle_r	subtalar_angle_r	mtp_angle_r	hip_flexion_l	hip_adduction_l	hip_rotation_l	knee_angle_l	knee_angle_l_beta	ankle_angle_l	subtalar_angle_l	mtp_angle_l	L5_S1_Flex_Ext	L5_S1_Lat_Bending	L5_S1_axial_rotation	L4_L5_Flex_Ext	L4_L5_Lat_Bending	L4_L5_axial_rotation	L3_L4_Flex_Ext	L3_L4_Lat_Bending	L3_L4_axial_rotation	L2_L3_Flex_Ext	L2_L3_Lat_Bending	L2_L3_axial_rotation	L1_L2_Flex_Ext	L1_L2_Lat_Bending	L1_L2_axial_rotation	L1_T12_Flex_Ext	L1_T12_Lat_Bending	L1_T12_axial_rotation	Abs_r3	Abs_r2	Abs_r1	Abs_t1	Abs_t2	neck_flexion	neck_bending	neck_rotation	arm_flex_r	arm_add_r	arm_rot_r	elbow_flex_r	pro_sup_r	wrist_flex_r	wrist_dev_r	arm_flex_l	arm_add_l	arm_rot_l	elbow_flex_l	pro_sup_l	wrist_flex_l	wrist_dev_l
0.000000	5.627153	-4.275148	78.065374	0.476777	0.589810	0.709316	5.057431	3.666059	0.181602	7.078630	0.123545	21.527516	6.563929	0.000000	3.169774	-3.247351	-17.471826	6.314470	0.110208	28.439239	7.557708	0.000000	-0.015347	0.258363	1.646917	-0.028500	0.343623	1.749850	-0.025213	0.628185	1.749850	-0.017540	0.628185	1.441053	-0.014251	0.526855	1.338120	-0.008769	0.400205	1.235188	-0.109620	2.922659	9.159660	0.000000	0.000000	26.799426	-3.098399	0.961754	21.587206	-2.782481	71.526139	45.172035	27.714817	-9.554882	12.827109	16.200713	-2.516811	69.806501	44.003280	74.536868	5.573493	28.902614
0.020408	5.275679	-4.082227	78.332806	0.478252	0.589770	0.707036	4.592708	3.289673	-0.029965	6.918805	0.120756	22.361386	7.285975	0.000000	2.874700	-2.927968	-18.341481	6.196499	0.108149	28.367967	8.357527	0.000000	0.011061	0.176736	1.878704	0.020542	0.235059	1.996123	0.018172	0.429716	1.996123	0.012642	0.429716	1.643866	0.010271	0.360400	1.526447	0.006320	0.273764	1.409028	0.079009	1.999272	10.448786	0.000000	0.000000	26.902520	-3.560479	-1.759035	20.811612	-2.958582	70.652178	45.378196	26.642080	-10.160665	11.685174	16.757261	-2.727705	71.970215	43.859623	75.000875	5.678104	29.282016
0.040816	4.991496	-3.887679	78.506517	0.479524	0.589790	0.705139	4.148255	2.974530	-0.123497	6.756022	0.117915	22.968707	7.828875	0.000000	2.578537	-2.658007	-19.009257	6.096206	0.106399	28.275828	8.892370	0.000000	0.032412	0.110901	2.081430	0.060192	0.147498	2.211519	0.053250	0.269644	2.211519	0.037044	0.269644	1.821251	0.030098	0.226149	1.691162	0.018520	0.171785	1.561072	0.231516	1.254530	11.576287	0.000000	0.000000	26.990926	-3.951494	-3.927914	20.162588	-3.123448	69.938989	45.537399	25.944941	-10.574295	10.903564	17.245348	-2.918151	73.706715	43.815344	75.142842	5.511333	29.591214
0.061224	4.768490	-3.693021	78.596744	0.480609	0.589864	0.703593	3.725698	2.715766	-0.113387	6.593377	0.115076	23.374222	8.210543	0.000000	2.284195	-2.433749	-19.496524	6.013821	0.104961	28.166591	9.192662	0.000000	0.049133	0.059371	2.256820	0.091244	0.078964	2.397872	0.080720	0.144355	2.397872	0.056154	0.144355	1.974718	0.045625	0.121070	1.833667	0.028074	0.091966	1.692615	0.350950	0.671620	12.551758	0.000000	0.000000	27.065559	-4.275839	-5.596181	19.630990	-3.276035	69.374253	45.652268	25.586293	-10.813406	10.443740	17.669099	-3.087054	75.063815	43.852639	74.995064	5.118137	29.834669
0.081633	4.600546	-3.499774	78.613723	0.481525	0.589986	0.702364	3.326667	2.508515	-0.014027	6.433966	0.112294	23.602676	8.448893	0.000000	1.994580	-2.251479	-19.824652	5.949575	0.103840	28.044026	9.288826	0.000000	0.061650	0.020662	2.406601	0.114491	0.027480	2.557014	0.101285	0.050237	2.557014	0.070460	0.050237	2.105776	0.057248	0.042133	1.955363	0.035227	0.032005	1.804951	0.440362	0.233728	13.384794	0.000000	0.000000	27.127331	-4.537909	-6.815134	19.207676	-3.415302	68.945649	45.725429	25.529033	-10.895630	10.267165	18.032638	-3.233318	76.089331	43.953704	74.589837	4.543475	30.016841
0.102041	4.481548	-3.309456	78.567689	0.482289	0.590148	0.701420	2.952790	2.347913	0.160192	6.280882	0.109622	23.678809	8.561840	0.000000	1.712602	-2.107478	-20.015009	5.903699	0.103039	27.911900	9.211286	0.000000	0.070392	-0.006715	2.532497	0.130724	-0.008931	2.690778	0.115646	-0.016326	2.690778	0.080451	-0.016326	2.215935	0.065366	-0.013693	2.057654	0.040222	-0.010401	1.899373	0.502800	-0.075958	14.084988	0.000000	0.000000	27.177157	-4.742100	-7.636070	18.883503	-3.540208	68.640858	45.759507	25.736055	-10.838601	10.335301	18.340091	-3.355850	76.831079	44.100736	73.959455	3.832303	30.142190
0.122449	4.405383	-3.123585	78.468880	0.482919	0.590343	0.700727	2.605695	2.229095	0.394877	6.137223	0.107115	23.627366	8.567298	0.000000	1.441169	-1.998031	-20.088967	5.876426	0.102563	27.773984	8.990465	0.000000	0.075784	-0.024244	2.636233	0.140738	-0.032244	2.800998	0.124505	-0.058946	2.800998	0.086613	-0.058946	2.306704	0.070373	-0.049438	2.141939	0.043303	-0.037554	1.977175	0.541315	-0.274251	14.661937	0.000000	0.000000	27.215950	-4.892807	-8.110288	18.649327	-3.649709	68.447559	45.757127	26.170255	-10.659950	10.609611	18.595581	-3.453552	77.336873	44.275931	73.136215	3.029579	30.215176
0.142857	4.365936	-2.943682	78.327532	0.483433	0.590566	0.700253	2.287011	2.147196	0.675636	6.006082	0.104826	23.473089	8.483180	0.000000	1.183187	-1.919419	-20.067895	5.867985	0.102416	27.634046	8.656786	0.000000	0.078253	-0.033412	2.719535	0.145324	-0.044438	2.889505	0.128562	-0.081238	2.889505	0.089436	-0.081238	2.379593	0.072666	-0.068134	2.209622	0.044714	-0.051755	2.039651	0.558955	-0.377965	15.125235	0.000000	0.000000	27.244623	-4.994425	-8.289084	18.496005	-3.742764	68.353433	45.720914	26.794527	-10.377310	11.051557	18.803232	-3.525331	77.654529	44.461485	72.152410	2.180260	30.240260
0.163265	4.357091	-2.771264	78.153881	0.483847	0.590810	0.699963	1.998366	2.097350	0.988078	5.890554	0.102810	23.240721	8.327402	0.000000	0.941567	-1.867926	-19.973162	5.878609	0.102601	27.495855	8.240675	0.000000	0.078227	-0.035706	2.784127	0.145276	-0.047489	2.958135	0.128520	-0.086815	2.958135	0.089406	-0.086815	2.436111	0.072642	-0.072812	2.262103	0.044699	-0.055309	2.088095	0.558770	-0.403913	15.484477	0.000000	0.000000	27.264090	-5.051349	-8.223756	18.414394	-3.818330	68.346159	45.653494	27.571767	-10.008315	11.622600	18.967170	-3.570090	77.831862	44.639596	71.040338	1.329305	30.221902
0.183673	4.372734	-2.607852	77.958162	0.484179	0.591067	0.699826	1.741389	2.074695	1.317810	5.793736	0.101120	22.955004	8.117876	0.000000	0.719215	-1.839836	-19.826138	5.908528	0.103123	27.363180	7.772553	0.000000	0.076133	-0.032611	2.831734	0.141386	-0.043373	3.008718	0.125079	-0.079291	3.008718	0.087012	-0.079291	2.477768	0.070697	-0.066501	2.300784	0.043502	-0.050515	2.123801	0.543809	-0.368907	15.749257	0.000000	0.000000	27.275264	-5.067976	-7.965603	18.395351	-3.875366	68.413417	45.557492	28.464871	-9.570598	12.284203	19.091517	-3.586734	77.916688	44.792458	69.832292	0.521669	30.164562
0.204082	4.406750	-2.454963	77.750614	0.484446	0.591331	0.699808	1.517708	2.074363	1.650441	5.718722	0.099811	22.640681	7.872519	0.000000	0.519041	-1.831430	-19.648193	5.957974	0.103986	27.239790	7.282846	0.000000	0.072397	-0.025615	2.864083	0.134448	-0.034068	3.043088	0.118941	-0.062280	3.043088	0.082742	-0.062280	2.506073	0.067228	-0.052234	2.327067	0.041367	-0.039678	2.148062	0.517122	-0.289762	15.929170	0.000000	0.000000	27.279060	-5.048699	-7.565920	18.429733	-3.912829	68.542887	45.435532	29.436732	-9.081790	12.997829	19.180400	-3.574168	77.956823	44.902269	68.560569	-0.197688	30.072700
0.224490	4.469842	-2.307892	77.568364	0.484628	0.591623	0.699797	1.311283	2.107154	1.914694	5.656681	0.098728	22.368783	7.692887	0.000000	0.333983	-1.854289	-19.469593	6.020313	0.105074	27.147801	6.850023	0.000000	0.067824	-0.014246	2.873702	0.125957	-0.018947	3.053309	0.111429	-0.034638	3.053309	0.077517	-0.034638	2.514489	0.062982	-0.029050	2.334883	0.038755	-0.022067	2.155277	0.484463	-0.161153	15.982670	0.000000	0.000000	27.289633	-5.021208	-7.076708	18.509857	-3.950083	68.827667	45.327688	30.639449	-8.510831	13.617178	19.245913	-3.550171	77.979382	45.006828	67.738121	-0.705501	30.073632
0.244898	4.518394	-2.187193	77.425805	0.484847	0.591889	0.699778	1.157231	2.142477	2.171308	5.629402	0.098252	22.132536	7.442993	0.000000	0.201507	-1.881426	-19.359503	6.125157	0.106904	27.070582	6.531598	0.000000	0.063811	-0.006782	2.876206	0.118504	-0.009020	3.055969	0.104836	-0.016490	3.055969	0.072930	-0.016490	2.516680	0.059255	-0.013830	2.336918	0.036462	-0.010505	2.157155	0.455798	-0.076720	15.996596	0.000000	0.000000	27.284822	-4.941750	-6.676745	18.587621	-3.930765	68.963442	45.133269	32.294679	-7.697256	14.223565	19.273592	-3.471940	78.214186	44.931497	66.659504	-0.858065	30.037764
0.265306	4.546954	-2.084275	77.312125	0.485132	0.592137	0.699699	1.035796	2.171635	2.412672	5.617266	0.098040	21.956388	7.175878	0.000000	0.100243	-1.901222	-19.318693	6.248091	0.109050	27.000094	6.318336	0.000000	0.060015	-0.004149	2.872537	0.111453	-0.005518	3.052071	0.098598	-0.010087	3.052071	0.068591	-0.010087	2.513470	0.055730	-0.008460	2.333937	0.034292	-0.006426	2.154403	0.428679	-0.046929	15.976191	0.000000	0.000000	27.266956	-4.815824	-6.374512	18.694933	-3.870956	69.149537	44.903928	33.745479	-6.927678	14.690602	19.231841	-3.347567	78.586367	44.697244	65.500582	-0.629317	29.966169
0.285714	4.567242	-1.993268	77.210926	0.485463	0.592372	0.699573	0.951576	2.203769	2.630664	5.647102	0.098561	21.860447	6.921045	0.000000	0.020346	-1.920267	-19.303622	6.382479	0.111395	26.943055	6.152086	0.000000	0.055584	-0.004363	2.870713	0.103225	-0.005802	3.050133	0.091319	-0.010607	3.050133	0.063527	-0.010607	2.511874	0.051615	-0.008896	2.332454	0.031761	-0.006758	2.153035	0.397031	-0.049350	15.966046	0.000000	0.000000	27.236981	-4.680723	-6.182891	18.797286	-3.809151	69.324929	44.708744	34.657071	-6.389672	15.048505	19.219391	-3.165358	79.361874	44.287927	63.960407	-0.199284	29.763534
0.306122	4.568034	-1.914148	77.105673	0.485836	0.592582	0.699443	0.918130	2.219286	2.759372	5.737807	0.100144	21.875228	6.798132	0.000000	-0.036578	-1.926007	-19.350555	6.522009	0.113831	26.900264	6.068839	0.000000	0.050641	-0.008534	2.868939	0.094045	-0.011350	3.048248	0.083198	-0.020748	3.048248	0.057877	-0.020748	2.510322	0.047025	-0.017402	2.331013	0.028936	-0.013218	2.151704	0.361722	-0.096533	15.956178	0.000000	0.000000	27.200472	-4.535897	-6.098629	18.896639	-3.724500	69.498946	44.514539	35.043289	-6.101194	15.311826	19.205120	-2.946794	80.341899	43.742502	62.308089	0.408985	29.479381
